<svg width="308" height="75" viewBox="0 0 308 75" fill="none" xmlns="http://www.w3.org/2000/svg">
<g filter="url(#filter0_d_97_67)">
<path d="M17.112 2.544C20.76 2.544 23.912 3.232 26.568 4.608C29.256 5.952 31.304 7.888 32.712 10.416C34.152 12.944 34.872 15.92 34.872 19.344C34.872 22.768 34.152 25.744 32.712 28.272C31.304 30.768 29.256 32.688 26.568 34.032C23.912 35.344 20.76 36 17.112 36H6.696V2.544H17.112ZM17.112 32.4C21.432 32.4 24.728 31.264 27 28.992C29.272 26.688 30.408 23.472 30.408 19.344C30.408 15.184 29.256 11.936 26.952 9.6C24.68 7.264 21.4 6.096 17.112 6.096H11.064V32.4H17.112ZM52.1055 36.432C49.6415 36.432 47.4015 35.872 45.3855 34.752C43.4015 33.632 41.8335 32.048 40.6815 30C39.5615 27.92 39.0015 25.52 39.0015 22.8C39.0015 20.112 39.5775 17.744 40.7295 15.696C41.9135 13.616 43.5135 12.032 45.5295 10.944C47.5455 9.824 49.8015 9.264 52.2975 9.264C54.7935 9.264 57.0495 9.824 59.0655 10.944C61.0815 12.032 62.6655 13.6 63.8175 15.648C65.0015 17.696 65.5935 20.08 65.5935 22.8C65.5935 25.52 64.9855 27.92 63.7695 30C62.5855 32.048 60.9695 33.632 58.9215 34.752C56.8735 35.872 54.6015 36.432 52.1055 36.432ZM52.1055 32.592C53.6735 32.592 55.1455 32.224 56.5215 31.488C57.8975 30.752 59.0015 29.648 59.8335 28.176C60.6975 26.704 61.1295 24.912 61.1295 22.8C61.1295 20.688 60.7135 18.896 59.8815 17.424C59.0495 15.952 57.9615 14.864 56.6175 14.16C55.2735 13.424 53.8175 13.056 52.2495 13.056C50.6495 13.056 49.1775 13.424 47.8335 14.16C46.5215 14.864 45.4655 15.952 44.6655 17.424C43.8655 18.896 43.4655 20.688 43.4655 22.8C43.4655 24.944 43.8495 26.752 44.6175 28.224C45.4175 29.696 46.4735 30.8 47.7855 31.536C49.0975 32.24 50.5375 32.592 52.1055 32.592ZM102.969 9.216C105.017 9.216 106.841 9.648 108.441 10.512C110.041 11.344 111.305 12.608 112.233 14.304C113.161 16 113.625 18.064 113.625 20.496V36H109.305V21.12C109.305 18.496 108.649 16.496 107.337 15.12C106.057 13.712 104.313 13.008 102.105 13.008C99.8326 13.008 98.0246 13.744 96.6806 15.216C95.3366 16.656 94.6646 18.752 94.6646 21.504V36H90.3446V21.12C90.3446 18.496 89.6886 16.496 88.3766 15.12C87.0966 13.712 85.3526 13.008 83.1446 13.008C80.8726 13.008 79.0646 13.744 77.7206 15.216C76.3766 16.656 75.7046 18.752 75.7046 21.504V36H71.3366V9.696H75.7046V13.488C76.5686 12.112 77.7206 11.056 79.1606 10.32C80.6326 9.584 82.2486 9.216 84.0086 9.216C86.2166 9.216 88.1686 9.712 89.8646 10.704C91.5606 11.696 92.8246 13.152 93.6566 15.072C94.3926 13.216 95.6086 11.776 97.3046 10.752C99.0006 9.728 100.889 9.216 102.969 9.216ZM144.118 9.696V36H139.75V32.112C138.918 33.456 137.75 34.512 136.246 35.28C134.774 36.016 133.142 36.384 131.35 36.384C129.302 36.384 127.462 35.968 125.83 35.136C124.198 34.272 122.902 32.992 121.942 31.296C121.014 29.6 120.55 27.536 120.55 25.104V9.696H124.87V24.528C124.87 27.12 125.526 29.12 126.838 30.528C128.15 31.904 129.942 32.592 132.214 32.592C134.55 32.592 136.39 31.872 137.734 30.432C139.078 28.992 139.75 26.896 139.75 24.144V9.696H144.118ZM160.805 36.432C158.789 36.432 156.981 36.096 155.381 35.424C153.781 34.72 152.517 33.76 151.589 32.544C150.661 31.296 150.149 29.872 150.053 28.272H154.565C154.693 29.584 155.301 30.656 156.389 31.488C157.509 32.32 158.965 32.736 160.757 32.736C162.421 32.736 163.733 32.368 164.693 31.632C165.653 30.896 166.133 29.968 166.133 28.848C166.133 27.696 165.621 26.848 164.597 26.304C163.573 25.728 161.989 25.168 159.845 24.624C157.893 24.112 156.293 23.6 155.045 23.088C153.829 22.544 152.773 21.76 151.877 20.736C151.013 19.68 150.581 18.304 150.581 16.608C150.581 15.264 150.981 14.032 151.781 12.912C152.581 11.792 153.717 10.912 155.189 10.272C156.661 9.6 158.341 9.264 160.229 9.264C163.141 9.264 165.493 10 167.285 11.472C169.077 12.944 170.037 14.96 170.165 17.52H165.797C165.701 16.144 165.141 15.04 164.117 14.208C163.125 13.376 161.781 12.96 160.085 12.96C158.517 12.96 157.269 13.296 156.341 13.968C155.413 14.64 154.949 15.52 154.949 16.608C154.949 17.472 155.221 18.192 155.765 18.768C156.341 19.312 157.045 19.76 157.877 20.112C158.741 20.432 159.925 20.8 161.429 21.216C163.317 21.728 164.853 22.24 166.037 22.752C167.221 23.232 168.229 23.968 169.061 24.96C169.925 25.952 170.373 27.248 170.405 28.848C170.405 30.288 170.005 31.584 169.205 32.736C168.405 33.888 167.269 34.8 165.797 35.472C164.357 36.112 162.693 36.432 160.805 36.432Z" fill="white"/>
<path d="M180.939 6.096V17.28H193.131V20.88H180.939V32.4H194.571V36H176.571V2.496H194.571V6.096H180.939ZM205.548 0.48V36H201.18V0.48H205.548ZM236.993 21.84C236.993 22.672 236.945 23.552 236.849 24.48H215.825C215.985 27.072 216.865 29.104 218.465 30.576C220.097 32.016 222.065 32.736 224.369 32.736C226.257 32.736 227.825 32.304 229.073 31.44C230.353 30.544 231.249 29.36 231.761 27.888H236.465C235.761 30.416 234.353 32.48 232.241 34.08C230.129 35.648 227.505 36.432 224.369 36.432C221.873 36.432 219.633 35.872 217.649 34.752C215.697 33.632 214.161 32.048 213.041 30C211.921 27.92 211.361 25.52 211.361 22.8C211.361 20.08 211.905 17.696 212.993 15.648C214.081 13.6 215.601 12.032 217.553 10.944C219.537 9.824 221.809 9.264 224.369 9.264C226.865 9.264 229.073 9.808 230.993 10.896C232.913 11.984 234.385 13.488 235.409 15.408C236.465 17.296 236.993 19.44 236.993 21.84ZM232.481 20.928C232.481 19.264 232.113 17.84 231.377 16.656C230.641 15.44 229.633 14.528 228.353 13.92C227.105 13.28 225.713 12.96 224.177 12.96C221.969 12.96 220.081 13.664 218.513 15.072C216.977 16.48 216.097 18.432 215.873 20.928H232.481ZM248.087 13.296V28.8C248.087 30.08 248.359 30.992 248.903 31.536C249.447 32.048 250.391 32.304 251.734 32.304H254.951V36H251.015C248.583 36 246.759 35.44 245.543 34.32C244.327 33.2 243.719 31.36 243.719 28.8V13.296H240.311V9.696H243.719V3.072H248.087V9.696H254.951V13.296H248.087ZM264.611 13.968C265.379 12.464 266.467 11.296 267.875 10.464C269.315 9.632 271.059 9.216 273.107 9.216V13.728H271.955C267.059 13.728 264.611 16.384 264.611 21.696V36H260.243V9.696H264.611V13.968ZM289.621 36.432C287.157 36.432 284.917 35.872 282.901 34.752C280.917 33.632 279.349 32.048 278.197 30C277.077 27.92 276.517 25.52 276.517 22.8C276.517 20.112 277.093 17.744 278.245 15.696C279.429 13.616 281.029 12.032 283.045 10.944C285.061 9.824 287.317 9.264 289.813 9.264C292.309 9.264 294.565 9.824 296.581 10.944C298.597 12.032 300.181 13.6 301.333 15.648C302.517 17.696 303.109 20.08 303.109 22.8C303.109 25.52 302.501 27.92 301.285 30C300.101 32.048 298.485 33.632 296.437 34.752C294.389 35.872 292.117 36.432 289.621 36.432ZM289.621 32.592C291.189 32.592 292.661 32.224 294.037 31.488C295.413 30.752 296.517 29.648 297.349 28.176C298.213 26.704 298.645 24.912 298.645 22.8C298.645 20.688 298.229 18.896 297.397 17.424C296.565 15.952 295.477 14.864 294.133 14.16C292.789 13.424 291.333 13.056 289.765 13.056C288.165 13.056 286.693 13.424 285.349 14.16C284.037 14.864 282.981 15.952 282.181 17.424C281.381 18.896 280.981 20.688 280.981 22.8C280.981 24.944 281.365 26.752 282.133 28.224C282.933 29.696 283.989 30.8 285.301 31.536C286.613 32.24 288.053 32.592 289.621 32.592Z" fill="#1B5E8B"/>
<path d="M4.54 66V50.16H14.44V51.711H6.157V57.189H13.12V58.74H6.157V64.449H14.44V66H4.54ZM17.3069 66V49.83H18.9239V66H17.3069ZM27.2486 66.33C26.09 66.33 25.0853 66.0733 24.2346 65.56C23.3913 65.0467 22.735 64.3243 22.2656 63.393C21.7963 62.4617 21.5616 61.369 21.5616 60.115C21.5616 58.817 21.7926 57.695 22.2546 56.749C22.7166 55.803 23.3656 55.0733 24.2016 54.56C25.045 54.0467 26.0386 53.79 27.1826 53.79C28.356 53.79 29.357 54.0613 30.1856 54.604C31.0143 55.1393 31.6413 55.9093 32.0666 56.914C32.492 57.9187 32.6863 59.1177 32.6496 60.511H30.9996V59.939C30.9703 58.399 30.6366 57.2367 29.9986 56.452C29.368 55.6673 28.444 55.275 27.2266 55.275C25.9506 55.275 24.9716 55.6893 24.2896 56.518C23.615 57.3467 23.2776 58.5273 23.2776 60.06C23.2776 61.556 23.615 62.7183 24.2896 63.547C24.9716 64.3683 25.936 64.779 27.1826 64.779C28.0333 64.779 28.774 64.5847 29.4046 64.196C30.0426 63.8 30.545 63.2317 30.9116 62.491L32.4186 63.074C31.9493 64.108 31.2563 64.911 30.3396 65.483C29.4303 66.0477 28.4 66.33 27.2486 66.33ZM22.7056 60.511V59.158H31.7806V60.511H22.7056ZM41.5588 66C40.8914 66.1393 40.2314 66.1943 39.5788 66.165C38.9334 66.1357 38.3541 65.9963 37.8408 65.747C37.3348 65.4977 36.9498 65.109 36.6858 64.581C36.4731 64.141 36.3558 63.6973 36.3338 63.25C36.3191 62.7953 36.3118 62.2783 36.3118 61.699V50.82H37.9178V61.633C37.9178 62.1317 37.9214 62.5497 37.9288 62.887C37.9434 63.217 38.0204 63.5103 38.1598 63.767C38.4238 64.2583 38.8418 64.5517 39.4138 64.647C39.9931 64.7423 40.7081 64.7203 41.5588 64.581V66ZM33.7708 55.506V54.12H41.5588V55.506H33.7708ZM43.8994 66V54.12H45.3514V56.98L45.0654 56.606C45.1974 56.254 45.3697 55.9313 45.5824 55.638C45.795 55.3373 46.026 55.0917 46.2754 54.901C46.5834 54.6297 46.9427 54.4243 47.3534 54.285C47.764 54.1383 48.1784 54.054 48.5964 54.032C49.0144 54.0027 49.3957 54.032 49.7404 54.12V55.638C49.3077 55.528 48.8347 55.5023 48.3214 55.561C47.808 55.6197 47.335 55.825 46.9024 56.177C46.5064 56.485 46.2094 56.8553 46.0114 57.288C45.8134 57.7133 45.6814 58.168 45.6154 58.652C45.5494 59.1287 45.5164 59.6017 45.5164 60.071V66H43.8994ZM56.5733 66.33C55.3926 66.33 54.3843 66.0623 53.5483 65.527C52.7123 64.9917 52.0706 64.251 51.6233 63.305C51.1759 62.359 50.9523 61.2737 50.9523 60.049C50.9523 58.8023 51.1796 57.7097 51.6343 56.771C52.0889 55.8323 52.7343 55.1027 53.5703 54.582C54.4136 54.054 55.4146 53.79 56.5733 53.79C57.7613 53.79 58.7733 54.0577 59.6093 54.593C60.4526 55.121 61.0943 55.858 61.5343 56.804C61.9816 57.7427 62.2053 58.8243 62.2053 60.049C62.2053 61.2957 61.9816 62.392 61.5343 63.338C61.0869 64.2767 60.4416 65.01 59.5983 65.538C58.7549 66.066 57.7466 66.33 56.5733 66.33ZM56.5733 64.779C57.8933 64.779 58.8759 64.3427 59.5213 63.47C60.1666 62.59 60.4893 61.4497 60.4893 60.049C60.4893 58.6117 60.1629 57.4677 59.5103 56.617C58.8649 55.7663 57.8859 55.341 56.5733 55.341C55.6859 55.341 54.9526 55.5427 54.3733 55.946C53.8013 56.342 53.3723 56.8957 53.0863 57.607C52.8076 58.311 52.6683 59.125 52.6683 60.049C52.6683 61.479 52.9983 62.6267 53.6583 63.492C54.3183 64.35 55.2899 64.779 56.5733 64.779ZM69.2408 66.33C68.1335 66.33 67.1875 66.055 66.4028 65.505C65.6181 64.9477 65.0168 64.196 64.5988 63.25C64.1808 62.304 63.9718 61.237 63.9718 60.049C63.9718 58.8683 64.1771 57.805 64.5878 56.859C65.0058 55.913 65.6035 55.165 66.3808 54.615C67.1581 54.065 68.0895 53.79 69.1748 53.79C70.2895 53.79 71.2281 54.0613 71.9908 54.604C72.7535 55.1467 73.3291 55.891 73.7178 56.837C74.1138 57.7757 74.3118 58.8463 74.3118 60.049C74.3118 61.2297 74.1175 62.2967 73.7288 63.25C73.3401 64.196 72.7681 64.9477 72.0128 65.505C71.2575 66.055 70.3335 66.33 69.2408 66.33ZM69.4058 64.823C70.2491 64.823 70.9458 64.6177 71.4958 64.207C72.0458 63.7963 72.4565 63.2317 72.7278 62.513C72.9991 61.787 73.1348 60.9657 73.1348 60.049C73.1348 59.1177 72.9991 58.2963 72.7278 57.585C72.4565 56.8663 72.0458 56.3053 71.4958 55.902C70.9531 55.4987 70.2675 55.297 69.4388 55.297C68.5881 55.297 67.8841 55.506 67.3268 55.924C66.7695 56.342 66.3551 56.9103 66.0838 57.629C65.8198 58.3477 65.6878 59.1543 65.6878 60.049C65.6878 60.951 65.8235 61.765 66.0948 62.491C66.3735 63.2097 66.7878 63.778 67.3378 64.196C67.8878 64.614 68.5771 64.823 69.4058 64.823ZM73.1348 66V57.057H72.9588V50.16H74.5868V66H73.1348ZM82.6338 66.33C81.4531 66.33 80.4448 66.0623 79.6088 65.527C78.7728 64.9917 78.1311 64.251 77.6838 63.305C77.2365 62.359 77.0128 61.2737 77.0128 60.049C77.0128 58.8023 77.2401 57.7097 77.6948 56.771C78.1495 55.8323 78.7948 55.1027 79.6308 54.582C80.4741 54.054 81.4751 53.79 82.6338 53.79C83.8218 53.79 84.8338 54.0577 85.6698 54.593C86.5131 55.121 87.1548 55.858 87.5948 56.804C88.0421 57.7427 88.2658 58.8243 88.2658 60.049C88.2658 61.2957 88.0421 62.392 87.5948 63.338C87.1475 64.2767 86.5021 65.01 85.6588 65.538C84.8155 66.066 83.8071 66.33 82.6338 66.33ZM82.6338 64.779C83.9538 64.779 84.9365 64.3427 85.5818 63.47C86.2271 62.59 86.5498 61.4497 86.5498 60.049C86.5498 58.6117 86.2235 57.4677 85.5708 56.617C84.9255 55.7663 83.9465 55.341 82.6338 55.341C81.7465 55.341 81.0131 55.5427 80.4338 55.946C79.8618 56.342 79.4328 56.8957 79.1468 57.607C78.8681 58.311 78.7288 59.125 78.7288 60.049C78.7288 61.479 79.0588 62.6267 79.7188 63.492C80.3788 64.35 81.3505 64.779 82.6338 64.779ZM104.86 66L104.871 58.201C104.871 57.2843 104.615 56.5657 104.101 56.045C103.595 55.517 102.95 55.253 102.165 55.253C101.718 55.253 101.282 55.3557 100.856 55.561C100.431 55.7663 100.079 56.0963 99.8003 56.551C99.529 57.0057 99.3933 57.5997 99.3933 58.333L98.4363 58.058C98.4143 57.2073 98.5793 56.463 98.9313 55.825C99.2907 55.187 99.782 54.692 100.405 54.34C101.036 53.9807 101.747 53.801 102.539 53.801C103.735 53.801 104.692 54.1713 105.41 54.912C106.129 55.6453 106.488 56.639 106.488 57.893L106.477 66H104.86ZM90.6813 66V54.12H92.1333V57.046H92.3093V66H90.6813ZM97.7873 66L97.7983 58.311C97.7983 57.365 97.5453 56.6207 97.0393 56.078C96.5407 55.528 95.8807 55.253 95.0593 55.253C94.238 55.253 93.5743 55.5353 93.0683 56.1C92.5623 56.6573 92.3093 57.4017 92.3093 58.333L91.3413 57.805C91.3413 57.0423 91.521 56.3603 91.8803 55.759C92.2397 55.1503 92.731 54.6737 93.3543 54.329C93.9777 53.977 94.6853 53.801 95.4773 53.801C96.2327 53.801 96.9037 53.9623 97.4903 54.285C98.0843 54.6077 98.55 55.077 98.8873 55.693C99.2247 56.309 99.3933 57.057 99.3933 57.937L99.3823 66H97.7873ZM115.237 52.25H113.851L115.16 48.84H116.546L115.237 52.25ZM114.368 66.33C113.209 66.33 112.204 66.0733 111.354 65.56C110.51 65.0467 109.854 64.3243 109.385 63.393C108.915 62.4617 108.681 61.369 108.681 60.115C108.681 58.817 108.912 57.695 109.374 56.749C109.836 55.803 110.485 55.0733 111.321 54.56C112.164 54.0467 113.158 53.79 114.302 53.79C115.475 53.79 116.476 54.0613 117.305 54.604C118.133 55.1393 118.76 55.9093 119.186 56.914C119.611 57.9187 119.805 59.1177 119.769 60.511H118.119V59.939C118.089 58.399 117.756 57.2367 117.118 56.452C116.487 55.6673 115.563 55.275 114.346 55.275C113.07 55.275 112.091 55.6893 111.409 56.518C110.734 57.3467 110.397 58.5273 110.397 60.06C110.397 61.556 110.734 62.7183 111.409 63.547C112.091 64.3683 113.055 64.779 114.302 64.779C115.152 64.779 115.893 64.5847 116.524 64.196C117.162 63.8 117.664 63.2317 118.031 62.491L119.538 63.074C119.068 64.108 118.375 64.911 117.459 65.483C116.549 66.0477 115.519 66.33 114.368 66.33ZM109.825 60.511V59.158H118.9V60.511H109.825ZM126.643 66.319C125.25 66.319 124.102 66.0183 123.2 65.417C122.305 64.8157 121.755 63.9797 121.55 62.909L123.2 62.634C123.376 63.3087 123.776 63.8477 124.399 64.251C125.03 64.647 125.807 64.845 126.731 64.845C127.633 64.845 128.344 64.658 128.865 64.284C129.386 63.9027 129.646 63.3857 129.646 62.733C129.646 62.3663 129.562 62.0693 129.393 61.842C129.232 61.6073 128.898 61.391 128.392 61.193C127.886 60.995 127.131 60.7603 126.126 60.489C125.048 60.1957 124.205 59.9023 123.596 59.609C122.987 59.3157 122.555 58.9783 122.298 58.597C122.041 58.2083 121.913 57.7353 121.913 57.178C121.913 56.5033 122.104 55.913 122.485 55.407C122.866 54.8937 123.394 54.4977 124.069 54.219C124.744 53.933 125.528 53.79 126.423 53.79C127.318 53.79 128.117 53.9367 128.821 54.23C129.532 54.516 130.104 54.9193 130.537 55.44C130.97 55.9607 131.226 56.5657 131.307 57.255L129.657 57.552C129.547 56.8553 129.199 56.3053 128.612 55.902C128.033 55.4913 127.296 55.2787 126.401 55.264C125.558 55.242 124.872 55.4033 124.344 55.748C123.816 56.0853 123.552 56.5363 123.552 57.101C123.552 57.4163 123.647 57.6877 123.838 57.915C124.029 58.135 124.373 58.344 124.872 58.542C125.378 58.74 126.097 58.9563 127.028 59.191C128.121 59.4697 128.979 59.763 129.602 60.071C130.225 60.379 130.669 60.742 130.933 61.16C131.197 61.578 131.329 62.095 131.329 62.711C131.329 63.833 130.911 64.7167 130.075 65.362C129.246 66 128.102 66.319 126.643 66.319ZM140.237 66C139.569 66.1393 138.909 66.1943 138.257 66.165C137.611 66.1357 137.032 65.9963 136.519 65.747C136.013 65.4977 135.628 65.109 135.364 64.581C135.151 64.141 135.034 63.6973 135.012 63.25C134.997 62.7953 134.99 62.2783 134.99 61.699V50.82H136.596V61.633C136.596 62.1317 136.599 62.5497 136.607 62.887C136.621 63.217 136.698 63.5103 136.838 63.767C137.102 64.2583 137.52 64.5517 138.092 64.647C138.671 64.7423 139.386 64.7203 140.237 64.581V66ZM132.449 55.506V54.12H140.237V55.506H132.449ZM142.797 51.865V50.05H144.414V51.865H142.797ZM142.797 66V54.12H144.414V66H142.797ZM152.64 66.33C151.445 66.33 150.433 66.0623 149.604 65.527C148.775 64.9917 148.145 64.2547 147.712 63.316C147.287 62.37 147.067 61.2847 147.052 60.06C147.067 58.8133 147.294 57.7207 147.734 56.782C148.174 55.836 148.808 55.1027 149.637 54.582C150.466 54.054 151.47 53.79 152.651 53.79C153.854 53.79 154.899 54.0833 155.786 54.67C156.681 55.2567 157.293 56.0597 157.623 57.079L156.039 57.585C155.76 56.8737 155.317 56.3237 154.708 55.935C154.107 55.539 153.417 55.341 152.64 55.341C151.767 55.341 151.045 55.5427 150.473 55.946C149.901 56.342 149.476 56.8957 149.197 57.607C148.918 58.3183 148.775 59.136 148.768 60.06C148.783 61.4827 149.113 62.6267 149.758 63.492C150.403 64.35 151.364 64.779 152.64 64.779C153.447 64.779 154.132 64.5957 154.697 64.229C155.269 63.855 155.702 63.3123 155.995 62.601L157.623 63.085C157.183 64.141 156.538 64.9477 155.687 65.505C154.836 66.055 153.821 66.33 152.64 66.33ZM164.532 66.33C163.352 66.33 162.343 66.0623 161.507 65.527C160.671 64.9917 160.03 64.251 159.582 63.305C159.135 62.359 158.911 61.2737 158.911 60.049C158.911 58.8023 159.139 57.7097 159.593 56.771C160.048 55.8323 160.693 55.1027 161.529 54.582C162.373 54.054 163.374 53.79 164.532 53.79C165.72 53.79 166.732 54.0577 167.568 54.593C168.412 55.121 169.053 55.858 169.493 56.804C169.941 57.7427 170.164 58.8243 170.164 60.049C170.164 61.2957 169.941 62.392 169.493 63.338C169.046 64.2767 168.401 65.01 167.557 65.538C166.714 66.066 165.706 66.33 164.532 66.33ZM164.532 64.779C165.852 64.779 166.835 64.3427 167.48 63.47C168.126 62.59 168.448 61.4497 168.448 60.049C168.448 58.6117 168.122 57.4677 167.469 56.617C166.824 55.7663 165.845 55.341 164.532 55.341C163.645 55.341 162.912 55.5427 162.332 55.946C161.76 56.342 161.331 56.8957 161.045 57.607C160.767 58.311 160.627 59.125 160.627 60.049C160.627 61.479 160.957 62.6267 161.617 63.492C162.277 64.35 163.249 64.779 164.532 64.779ZM176.916 66.319C175.523 66.319 174.375 66.0183 173.473 65.417C172.579 64.8157 172.029 63.9797 171.823 62.909L173.473 62.634C173.649 63.3087 174.049 63.8477 174.672 64.251C175.303 64.647 176.08 64.845 177.004 64.845C177.906 64.845 178.618 64.658 179.138 64.284C179.659 63.9027 179.919 63.3857 179.919 62.733C179.919 62.3663 179.835 62.0693 179.666 61.842C179.505 61.6073 179.171 61.391 178.665 61.193C178.159 60.995 177.404 60.7603 176.399 60.489C175.321 60.1957 174.478 59.9023 173.869 59.609C173.261 59.3157 172.828 58.9783 172.571 58.597C172.315 58.2083 172.186 57.7353 172.186 57.178C172.186 56.5033 172.377 55.913 172.758 55.407C173.14 54.8937 173.668 54.4977 174.342 54.219C175.017 53.933 175.802 53.79 176.696 53.79C177.591 53.79 178.39 53.9367 179.094 54.23C179.806 54.516 180.378 54.9193 180.81 55.44C181.243 55.9607 181.5 56.5657 181.58 57.255L179.93 57.552C179.82 56.8553 179.472 56.3053 178.885 55.902C178.306 55.4913 177.569 55.2787 176.674 55.264C175.831 55.242 175.145 55.4033 174.617 55.748C174.089 56.0853 173.825 56.5363 173.825 57.101C173.825 57.4163 173.921 57.6877 174.111 57.915C174.302 58.135 174.647 58.344 175.145 58.542C175.651 58.74 176.37 58.9563 177.301 59.191C178.394 59.4697 179.252 59.763 179.875 60.071C180.499 60.379 180.942 60.742 181.206 61.16C181.47 61.578 181.602 62.095 181.602 62.711C181.602 63.833 181.184 64.7167 180.348 65.362C179.52 66 178.376 66.319 176.916 66.319ZM188.446 66V50.16H193.253C193.422 50.16 193.708 50.1637 194.111 50.171C194.522 50.1783 194.914 50.2077 195.288 50.259C196.491 50.4277 197.496 50.875 198.302 51.601C199.109 52.327 199.714 53.251 200.117 54.373C200.521 55.495 200.722 56.7307 200.722 58.08C200.722 59.4293 200.521 60.665 200.117 61.787C199.714 62.909 199.109 63.833 198.302 64.559C197.496 65.285 196.491 65.7323 195.288 65.901C194.922 65.945 194.529 65.9743 194.111 65.989C193.693 65.9963 193.407 66 193.253 66H188.446ZM190.118 64.449H193.253C193.554 64.449 193.877 64.4417 194.221 64.427C194.573 64.405 194.874 64.3683 195.123 64.317C196.047 64.1557 196.792 63.7817 197.356 63.195C197.928 62.6083 198.346 61.875 198.61 60.995C198.874 60.1077 199.006 59.136 199.006 58.08C199.006 57.0167 198.874 56.0413 198.61 55.154C198.346 54.2667 197.928 53.5333 197.356 52.954C196.784 52.3747 196.04 52.0043 195.123 51.843C194.874 51.7917 194.57 51.7587 194.21 51.744C193.858 51.722 193.539 51.711 193.253 51.711H190.118V64.449ZM208.255 66.33C207.096 66.33 206.091 66.0733 205.241 65.56C204.397 65.0467 203.741 64.3243 203.272 63.393C202.802 62.4617 202.568 61.369 202.568 60.115C202.568 58.817 202.799 57.695 203.261 56.749C203.723 55.803 204.372 55.0733 205.208 54.56C206.051 54.0467 207.045 53.79 208.189 53.79C209.362 53.79 210.363 54.0613 211.192 54.604C212.02 55.1393 212.647 55.9093 213.073 56.914C213.498 57.9187 213.692 59.1177 213.656 60.511H212.006V59.939C211.976 58.399 211.643 57.2367 211.005 56.452C210.374 55.6673 209.45 55.275 208.233 55.275C206.957 55.275 205.978 55.6893 205.296 56.518C204.621 57.3467 204.284 58.5273 204.284 60.06C204.284 61.556 204.621 62.7183 205.296 63.547C205.978 64.3683 206.942 64.779 208.189 64.779C209.039 64.779 209.78 64.5847 210.411 64.196C211.049 63.8 211.551 63.2317 211.918 62.491L213.425 63.074C212.955 64.108 212.262 64.911 211.346 65.483C210.436 66.0477 209.406 66.33 208.255 66.33ZM203.712 60.511V59.158H212.787V60.511H203.712ZM226.914 66.33C225.337 66.33 224.006 65.9817 222.921 65.285C221.836 64.581 221.014 63.6093 220.457 62.37C219.9 61.1307 219.621 59.7007 219.621 58.08C219.621 56.4593 219.9 55.0293 220.457 53.79C221.014 52.5507 221.836 51.5827 222.921 50.886C224.006 50.182 225.337 49.83 226.914 49.83C228.755 49.83 230.258 50.303 231.424 51.249C232.59 52.1877 233.389 53.449 233.822 55.033L232.172 55.462C231.835 54.208 231.23 53.2143 230.357 52.481C229.484 51.7477 228.337 51.381 226.914 51.381C225.675 51.381 224.644 51.6633 223.823 52.228C223.002 52.7927 222.382 53.581 221.964 54.593C221.553 55.5977 221.341 56.76 221.326 58.08C221.319 59.4 221.52 60.5623 221.931 61.567C222.349 62.5717 222.972 63.36 223.801 63.932C224.637 64.4967 225.675 64.779 226.914 64.779C228.337 64.779 229.484 64.4123 230.357 63.679C231.23 62.9383 231.835 61.9447 232.172 60.698L233.822 61.127C233.389 62.711 232.59 63.976 231.424 64.922C230.258 65.8607 228.755 66.33 226.914 66.33ZM241.21 66.33C240.029 66.33 239.021 66.0623 238.185 65.527C237.349 64.9917 236.707 64.251 236.26 63.305C235.813 62.359 235.589 61.2737 235.589 60.049C235.589 58.8023 235.816 57.7097 236.271 56.771C236.726 55.8323 237.371 55.1027 238.207 54.582C239.05 54.054 240.051 53.79 241.21 53.79C242.398 53.79 243.41 54.0577 244.246 54.593C245.089 55.121 245.731 55.858 246.171 56.804C246.618 57.7427 246.842 58.8243 246.842 60.049C246.842 61.2957 246.618 62.392 246.171 63.338C245.724 64.2767 245.078 65.01 244.235 65.538C243.392 66.066 242.383 66.33 241.21 66.33ZM241.21 64.779C242.53 64.779 243.513 64.3427 244.158 63.47C244.803 62.59 245.126 61.4497 245.126 60.049C245.126 58.6117 244.8 57.4677 244.147 56.617C243.502 55.7663 242.523 55.341 241.21 55.341C240.323 55.341 239.589 55.5427 239.01 55.946C238.438 56.342 238.009 56.8957 237.723 57.607C237.444 58.311 237.305 59.125 237.305 60.049C237.305 61.479 237.635 62.6267 238.295 63.492C238.955 64.35 239.927 64.779 241.21 64.779ZM247.739 66V65.659L255.406 55.627H248.311V54.12H258.068V54.494L250.412 64.493H257.65V66H247.739ZM260.703 51.865V50.05H262.32V51.865H260.703ZM260.703 66V54.12H262.32V66H260.703ZM274.198 66V59.939C274.198 59.279 274.136 58.674 274.011 58.124C273.886 57.5667 273.685 57.0827 273.406 56.672C273.135 56.254 272.779 55.9313 272.339 55.704C271.906 55.4767 271.378 55.363 270.755 55.363C270.183 55.363 269.677 55.462 269.237 55.66C268.804 55.858 268.438 56.144 268.137 56.518C267.844 56.8847 267.62 57.332 267.466 57.86C267.312 58.388 267.235 58.9893 267.235 59.664L266.091 59.411C266.091 58.1937 266.304 57.1707 266.729 56.342C267.154 55.5133 267.741 54.8863 268.489 54.461C269.237 54.0357 270.095 53.823 271.063 53.823C271.774 53.823 272.394 53.933 272.922 54.153C273.457 54.373 273.908 54.67 274.275 55.044C274.649 55.418 274.95 55.847 275.177 56.331C275.404 56.8077 275.569 57.3173 275.672 57.86C275.775 58.3953 275.826 58.9307 275.826 59.466V66H274.198ZM265.607 66V54.12H267.07V57.046H267.235V66H265.607ZM287.261 66V59.939C287.261 59.279 287.198 58.674 287.074 58.124C286.949 57.5667 286.747 57.0827 286.469 56.672C286.197 56.254 285.842 55.9313 285.402 55.704C284.969 55.4767 284.441 55.363 283.818 55.363C283.246 55.363 282.74 55.462 282.3 55.66C281.867 55.858 281.5 56.144 281.2 56.518C280.906 56.8847 280.683 57.332 280.529 57.86C280.375 58.388 280.298 58.9893 280.298 59.664L279.154 59.411C279.154 58.1937 279.366 57.1707 279.792 56.342C280.217 55.5133 280.804 54.8863 281.552 54.461C282.3 54.0357 283.158 53.823 284.126 53.823C284.837 53.823 285.457 53.933 285.985 54.153C286.52 54.373 286.971 54.67 287.338 55.044C287.712 55.418 288.012 55.847 288.24 56.331C288.467 56.8077 288.632 57.3173 288.735 57.86C288.837 58.3953 288.889 58.9307 288.889 59.466V66H287.261ZM278.67 66V50.16H280.133V59.103H280.298V66H278.67ZM295.142 66.33C294.247 66.33 293.496 66.1687 292.887 65.846C292.286 65.5233 291.835 65.0943 291.534 64.559C291.233 64.0237 291.083 63.4407 291.083 62.81C291.083 62.1647 291.211 61.6147 291.468 61.16C291.732 60.698 292.088 60.3203 292.535 60.027C292.99 59.7337 293.514 59.51 294.108 59.356C294.709 59.2093 295.373 59.081 296.099 58.971C296.832 58.8537 297.547 58.7547 298.244 58.674C298.948 58.586 299.564 58.5017 300.092 58.421L299.52 58.773C299.542 57.5997 299.315 56.7307 298.838 56.166C298.361 55.6013 297.533 55.319 296.352 55.319C295.538 55.319 294.849 55.5023 294.284 55.869C293.727 56.2357 293.334 56.815 293.107 57.607L291.534 57.145C291.805 56.0817 292.352 55.2567 293.173 54.67C293.994 54.0833 295.061 53.79 296.374 53.79C297.459 53.79 298.38 53.9953 299.135 54.406C299.898 54.8093 300.437 55.396 300.752 56.166C300.899 56.5107 300.994 56.8957 301.038 57.321C301.082 57.7463 301.104 58.179 301.104 58.619V66H299.663V63.019L300.081 63.195C299.678 64.2143 299.051 64.9917 298.2 65.527C297.349 66.0623 296.33 66.33 295.142 66.33ZM295.329 64.933C296.084 64.933 296.744 64.7973 297.309 64.526C297.874 64.2547 298.328 63.8843 298.673 63.415C299.018 62.9383 299.241 62.403 299.344 61.809C299.432 61.4277 299.48 61.0097 299.487 60.555C299.494 60.093 299.498 59.7483 299.498 59.521L300.114 59.84C299.564 59.9133 298.966 59.9867 298.321 60.06C297.683 60.1333 297.052 60.2177 296.429 60.313C295.813 60.4083 295.256 60.522 294.757 60.654C294.42 60.7493 294.093 60.885 293.778 61.061C293.463 61.2297 293.202 61.457 292.997 61.743C292.799 62.029 292.7 62.3847 292.7 62.81C292.7 63.1547 292.784 63.4883 292.953 63.811C293.129 64.1337 293.408 64.4013 293.789 64.614C294.178 64.8267 294.691 64.933 295.329 64.933Z" fill="#1B5C88"/>
</g>
<defs>
<filter id="filter0_d_97_67" x="0.540039" y="0.480011" width="306.569" height="73.85" filterUnits="userSpaceOnUse" color-interpolation-filters="sRGB">
<feFlood flood-opacity="0" result="BackgroundImageFix"/>
<feColorMatrix in="SourceAlpha" type="matrix" values="0 0 0 0 0 0 0 0 0 0 0 0 0 0 0 0 0 0 127 0" result="hardAlpha"/>
<feOffset dy="4"/>
<feGaussianBlur stdDeviation="2"/>
<feComposite in2="hardAlpha" operator="out"/>
<feColorMatrix type="matrix" values="0 0 0 0 0 0 0 0 0 0 0 0 0 0 0 0 0 0 0.25 0"/>
<feBlend mode="normal" in2="BackgroundImageFix" result="effect1_dropShadow_97_67"/>
<feBlend mode="normal" in="SourceGraphic" in2="effect1_dropShadow_97_67" result="shape"/>
</filter>
</defs>
</svg>
