<svg width="54" height="56" viewBox="0 0 54 56" fill="none" xmlns="http://www.w3.org/2000/svg">
<g filter="url(#filter0_d_26_67)">
<path d="M44.1 47.25L29.925 33.075C28.8 33.975 27.5063 34.6875 26.0437 35.2125C24.5812 35.7375 23.025 36 21.375 36C17.2875 36 13.8281 34.5844 10.9969 31.7531C8.16563 28.9219 6.75 25.4625 6.75 21.375C6.75 17.2875 8.16563 13.8281 10.9969 10.9969C13.8281 8.16563 17.2875 6.75 21.375 6.75C25.4625 6.75 28.9219 8.16563 31.7531 10.9969C34.5844 13.8281 36 17.2875 36 21.375C36 23.025 35.7375 24.5812 35.2125 26.0437C34.6875 27.5063 33.975 28.8 33.075 29.925L47.25 44.1L44.1 47.25ZM21.375 31.5C24.1875 31.5 26.5781 30.5156 28.5469 28.5469C30.5156 26.5781 31.5 24.1875 31.5 21.375C31.5 18.5625 30.5156 16.1719 28.5469 14.2031C26.5781 12.2344 24.1875 11.25 21.375 11.25C18.5625 11.25 16.1719 12.2344 14.2031 14.2031C12.2344 16.1719 11.25 18.5625 11.25 21.375C11.25 24.1875 12.2344 26.5781 14.2031 28.5469C16.1719 30.5156 18.5625 31.5 21.375 31.5Z" fill="#FEF7FF"/>
</g>
<defs>
<filter id="filter0_d_26_67" x="-4" y="0" width="62" height="62" filterUnits="userSpaceOnUse" color-interpolation-filters="sRGB">
<feFlood flood-opacity="0" result="BackgroundImageFix"/>
<feColorMatrix in="SourceAlpha" type="matrix" values="0 0 0 0 0 0 0 0 0 0 0 0 0 0 0 0 0 0 127 0" result="hardAlpha"/>
<feOffset dy="4"/>
<feGaussianBlur stdDeviation="2"/>
<feComposite in2="hardAlpha" operator="out"/>
<feColorMatrix type="matrix" values="0 0 0 0 0 0 0 0 0 0 0 0 0 0 0 0 0 0 0.25 0"/>
<feBlend mode="normal" in2="BackgroundImageFix" result="effect1_dropShadow_26_67"/>
<feBlend mode="normal" in="SourceGraphic" in2="effect1_dropShadow_26_67" result="shape"/>
</filter>
</defs>
</svg>
