<svg width="54" height="54" viewBox="0 0 54 54" fill="none" xmlns="http://www.w3.org/2000/svg">
<g clip-path="url(#clip0_26_91)">
<g filter="url(#filter0_d_26_91)">
<path d="M45 47.25V42.75C45 40.3631 44.0518 38.0739 42.364 36.386C40.6761 34.6982 38.3869 33.75 36 33.75H18C15.6131 33.75 13.3239 34.6982 11.636 36.386C9.94821 38.0739 9 40.3631 9 42.75V47.25M36 15.75C36 20.7206 31.9706 24.75 27 24.75C22.0294 24.75 18 20.7206 18 15.75C18 10.7794 22.0294 6.75 27 6.75C31.9706 6.75 36 10.7794 36 15.75Z" stroke="#F3F3F3" stroke-width="4" stroke-linecap="round" stroke-linejoin="round" shape-rendering="crispEdges"/>
</g>
</g>
<defs>
<filter id="filter0_d_26_91" x="3" y="4.75" width="48" height="52.5" filterUnits="userSpaceOnUse" color-interpolation-filters="sRGB">
<feFlood flood-opacity="0" result="BackgroundImageFix"/>
<feColorMatrix in="SourceAlpha" type="matrix" values="0 0 0 0 0 0 0 0 0 0 0 0 0 0 0 0 0 0 127 0" result="hardAlpha"/>
<feOffset dy="4"/>
<feGaussianBlur stdDeviation="2"/>
<feComposite in2="hardAlpha" operator="out"/>
<feColorMatrix type="matrix" values="0 0 0 0 0 0 0 0 0 0 0 0 0 0 0 0 0 0 0.25 0"/>
<feBlend mode="normal" in2="BackgroundImageFix" result="effect1_dropShadow_26_91"/>
<feBlend mode="normal" in="SourceGraphic" in2="effect1_dropShadow_26_91" result="shape"/>
</filter>
<clipPath id="clip0_26_91">
<rect width="54" height="54" fill="white"/>
</clipPath>
</defs>
</svg>
